<?xml version="1.0" encoding="UTF-8" standalone="no"?>
<svg
   xmlns:dc="http://purl.org/dc/elements/1.1/"
   xmlns:cc="http://creativecommons.org/ns#"
   xmlns:rdf="http://www.w3.org/1999/02/22-rdf-syntax-ns#"
   xmlns:svg="http://www.w3.org/2000/svg"
   xmlns="http://www.w3.org/2000/svg"
   xmlns:xlink="http://www.w3.org/1999/xlink"
   xmlns:sodipodi="http://sodipodi.sourceforge.net/DTD/sodipodi-0.dtd"
   xmlns:inkscape="http://www.inkscape.org/namespaces/inkscape"
   width="300"
   height="50"
   viewBox="0 0 300 50"
   version="1.1"
   id="svg34"
   sodipodi:docname="Deepin Brasil 3.svg"
   inkscape:export-filename="/home/inspiron5447/Desktop/001.png"
   inkscape:export-xdpi="1500"
   inkscape:export-ydpi="1500"
   inkscape:version="0.92.1 r15371">
  <metadata
     id="metadata38">
    <rdf:RDF>
      <cc:Work
         rdf:about="">
        <dc:format>image/svg+xml</dc:format>
        <dc:type
           rdf:resource="http://purl.org/dc/dcmitype/StillImage" />
        <dc:title />
      </cc:Work>
    </rdf:RDF>
  </metadata>
  <sodipodi:namedview
     pagecolor="#ffffff"
     bordercolor="#666666"
     borderopacity="1"
     objecttolerance="10"
     gridtolerance="10"
     guidetolerance="10"
     inkscape:pageopacity="0"
     inkscape:pageshadow="2"
     inkscape:window-width="1366"
     inkscape:window-height="728"
     id="namedview36"
     showgrid="false"
     inkscape:zoom="2.8888889"
     inkscape:cx="52.311806"
     inkscape:cy="32.278269"
     inkscape:window-x="0"
     inkscape:window-y="0"
     inkscape:window-maximized="1"
     inkscape:current-layer="g47" />
  <defs
     id="defs17">
    <path
       id="logo-a"
       d="m 48.96256,24.73888 c 0,13.25472 -10.74528,24 -24,24 -13.25472,0 -24,-10.74528 -24,-24 0,-13.25472 10.74528,-24 24,-24 13.25472,0 24,10.74528 24,24"
       inkscape:connector-curvature="0" />
    <path
       id="logo-c"
       d="m 4.28992,34.16032 c 4.75968,1.3872 17.78592,4.38624 26.0112,-1.4208 5.33472,-3.76704 4.64736,-9.79968 4.64736,-9.79968 C 34.86016,18.35104 31.96,13.79296 31.96,13.79296 c 11.27712,9.82752 4.61184,20.7456 4.61184,20.7456 C 33.13984,41.2912 25.7008,45.352 19.76704,46.77472 12.87136,45.1888 7.18048,40.4512 4.28992,34.16032 Z M 7.34464,10.39744 c 1.39776,7.32 4.5312,13.49472 6.61536,15.7392 2.69376,2.90112 6.66144,5.9808 11.75232,4.70784 5.0928,-1.27296 6.12864,-6.83904 6.12864,-6.83904 C 32.96608,19.2688 31.3648,13.64416 31.2784,13.52608 31.192,13.40704 30.42784,13.27456 30.42784,13.27456 c 0.79872,7.4592 -1.16352,10.75968 -1.16352,10.75968 -2.85504,5.84832 -7.04448,4.03968 -7.04448,4.03968 C 17.55808,25.69888 17.77792,19.00288 17.77792,19.00288 17.63584,14.34784 19.48,6.65152 23.02528,2.1712 16.71328,2.67712 11.13184,5.77408 7.34464,10.39744 Z m 26.3712,-6.50016 c -2.7216,2.21184 -7.35168,6.93504 -7.35168,6.93504 -6.8688,6.36384 -5.53632,11.72256 -5.53632,11.72256 1.0944,5.62464 4.50048,1.83552 4.50048,1.83552 3.5808,-3.7008 3.31392,-11.07168 3.31392,-11.07168 -1.4496,0.23616 -2.36736,1.0368 -2.36736,1.0368 -0.1776,4.91328 -3.07872,7.96224 -3.07872,7.96224 -1.12512,1.24416 -1.92384,0.05952 -1.92384,0.05952 -0.59136,-0.88896 0.59136,-1.51008 0.59136,-1.51008 1.65696,-1.45056 2.15424,-3.92544 2.13312,-4.85376 -0.024,-0.9312 0.47232,-1.18464 0.47232,-1.18464 2.33856,-1.80672 4.67808,-2.87232 4.67808,-2.87232 3.13728,-1.5984 8.73216,-1.86528 8.73216,-1.86528 1.51776,0.05088 2.96832,-0.024 4.12896,-0.12576 -2.2464,-2.60928 -5.07936,-4.70016 -8.29248,-6.06816 z"
       inkscape:connector-curvature="0" />
    <linearGradient
       id="logo-f"
       x1="81.390335"
       x2="81.390335"
       y1="3.9205172"
       y2="93.241486"
       gradientTransform="scale(1.9602586,0.51013679)"
       gradientUnits="userSpaceOnUse">
      <stop
         offset="0%"
         stop-color="#FFF"
         id="stop4" />
      <stop
         offset="100%"
         stop-color="#F9F9F9"
         id="stop6" />
    </linearGradient>
    <path
       id="logo-e"
       d="m 137.11809,37.813725 c 1.1017,0 1.10811,-1.001699 1.10704,-1.102629 -0.001,-0.376586 -0.006,-2.842307 -0.006,-3.221064 0,-1.085265 -1.08355,-1.102629 -1.08355,-1.102629 0,0 -21.07866,-0.01736 -22.43551,-0.01736 -2.1511,0 -2.11801,-2.116266 -2.11801,-2.116266 -0.0277,-0.137828 0.001,-2.207428 0,-2.207428 h 21.35942 c 5.92914,0 5.32918,-4.341057 5.32918,-4.341057 V 19.4033 c 0,0 0.57861,-7.63592 -7.45572,-7.63592 h -17.99452 c -8.17739,0 -7.62333,7.53499 -7.62333,7.53499 0,4.079509 0.002,5.538104 0.002,10.905822 0,7.605533 7.48348,7.570804 7.48348,7.570804 m 18.1333,-15.143779 c -0.68216,0 -19.23394,0.0022 -19.23394,0.0022 0,0 0.004,-2.810835 0.004,-3.239515 0,-1.101543 1.03018,-2.183552 2.14789,-2.186807 1.03659,-0.0043 14.97231,0 16.04626,0 0.96719,0 2.09025,1.101543 2.08491,2.170528 -0.004,0.845421 -0.0171,1.363093 -0.0171,2.170529 0,0 0,1.083094 -1.03232,1.083094 z M 102.96308,2 c 0,0 1.07822,0 1.07822,1.0852644 V 32.404767 c 0,0 -0.005,5.393764 -5.331311,5.393764 -4.301135,0 -4.585102,-0.02279 -14.744917,-0.01302 -10.158749,0.01085 -11.954358,-8.783045 -11.965033,-12.979762 -0.0096,-4.196718 1.759312,-13.041622 11.805969,-13.038366 4.677977,0.0022 9.332469,-0.0011 13.826829,0 0,0 0.0043,-8.5594807 0.0043,-8.6484724 C 97.637107,2 98.706786,2 98.706786,2 c 0.456909,0.00109 3.798324,0.00109 4.256294,0 z m -5.344121,29.32927 c 0,0 0.01708,1.058133 -1.067544,1.058133 -1.163623,0 -6.846159,0.01302 -10.337028,0.0022 -3.493004,-0.0098 -7.774923,-0.790072 -7.777058,-7.51437 -0.0032,-6.725384 4.755908,-7.65654 7.726883,-7.65654 2.96884,0 11.450477,0.01194 11.450477,0.01194 0,0 0.0043,13.134954 0.0043,14.098669 z M 216.13342,8.5115864 h -4.27018 c -0.58928,0 -1.06754,-0.4861985 -1.06754,-1.0852644 V 3.0852644 C 210.7957,2.4861984 211.27396,2 211.86324,2 h 4.27018 c 0.58928,0 1.06754,0.4861984 1.06754,1.0852644 V 7.426322 c 0,0.5990659 -0.47826,1.0852644 -1.06754,1.0852644 z m 0,29.3021386 h -4.27018 c -0.58928,0 -1.06754,-0.486199 -1.06754,-1.085265 V 12.852644 c 0,-0.599066 0.47826,-1.085264 1.06754,-1.085264 h 4.27018 c 0.58928,0 1.06754,0.486198 1.06754,1.085264 V 36.72846 c 0,0.599066 -0.47826,1.085265 -1.06754,1.085265 z m 20.28333,-26.038749 c 7.84218,0.01085 10.67544,4.335632 10.67544,10.351252 v 14.603318 c 0,0.599066 -0.47719,1.084179 -1.06647,1.085264 l -4.26804,0.0022 c -0.59142,0.0011 -1.06968,-0.486199 -1.06861,-1.087435 l 0.031,-14.109523 c 0,-5.336245 -4.13352,-5.417639 -4.3118,-5.417639 -2.85782,0 -10.66797,0.0087 -10.66797,0.0087 l 0.031,19.483751 c 0,0 0.0427,1.308829 -1.42838,1.096117 -1.04406,0.0033 -2.68487,0.0087 -3.72893,0.01302 -0.96826,0.12589 -1.27785,-0.600152 -1.27785,-1.092862 V 11.771721 c 0,0 9.23853,-0.0076 17.0807,0.0033 z m -58.71171,35.790935 c 0,0 -1.07075,0 -1.07075,-1.085265 V 17.162229 c 0,0 -0.002,-5.394849 5.32491,-5.394849 4.30007,0 4.57656,0.02279 14.73638,0.01302 10.15875,-0.01085 11.95436,8.783044 11.96503,12.979762 0.01,4.197802 -1.75931,13.042707 -11.80597,13.038366 -4.67691,-0.0011 -9.3314,0.0011 -13.82576,0 0,0 -0.004,8.559481 -0.004,8.648472 0,1.118908 -1.06648,1.118908 -1.06648,1.118908 -0.4569,-0.0011 -3.79511,-0.0011 -4.25309,0 z m 5.33558,-29.328185 c 0,0 -0.016,-1.059218 1.06755,-1.059218 1.16362,0 6.84616,-0.01302 10.33809,-0.0022 3.49301,0.01085 7.77493,0.790073 7.77706,7.514371 0.003,6.725383 -4.75591,7.65654 -7.72688,7.65654 -2.96884,0 -11.45048,-0.01085 -11.45048,-0.01085 0,0 -0.005,-13.136041 -0.005,-14.09867 z m -10.69358,19.575999 -23.4358,-0.03473 c 0,0 -7.48348,0.03473 -7.48348,-7.570804 0,-5.367718 -0.002,-6.826313 -0.002,-10.905822 0,0 -0.55406,-7.53499 7.62333,-7.53499 h 17.99452 c 8.03433,0 7.45572,7.63592 7.45572,7.63592 v 4.301988 c 0,0 0.59996,4.341057 -5.32917,4.341057 h -21.35942 c 10e-4,0 -0.0278,2.0696 0,2.207428 0,0 -0.0331,2.116266 2.118,2.116266 1.35685,0 22.43551,0.01736 22.43551,0.01736 0,0 1.08355,0.01736 1.08355,1.102629 0,0.378757 0.005,2.844478 0.006,3.221064 0.001,0.10093 -0.005,1.102629 -1.10704,1.102629 z m -5.30249,-15.178508 c -0.68217,0 -19.23394,0.0022 -19.23394,0.0022 0,0 0.004,-2.810835 0.004,-3.239515 0,-1.101543 1.03018,-2.183552 2.14789,-2.186807 1.03659,-0.0043 14.97231,0 16.04626,0 0.96719,0 2.09025,1.101543 2.08491,2.170528 -0.004,0.845421 -0.0171,1.363093 -0.0171,2.170529 0,0 0,1.083094 -1.03231,1.083094"
       inkscape:connector-curvature="0" />
    <filter
       id="logo-d"
       width="1.091"
       height="1.3510001"
       x="-0.046"
       y="-0.154"
       filterUnits="objectBoundingBox">
      <feOffset
         dy="1"
         in="SourceAlpha"
         result="shadowOffsetOuter1"
         id="feOffset10" />
      <feGaussianBlur
         in="shadowOffsetOuter1"
         result="shadowBlurOuter1"
         stdDeviation="2.5"
         id="feGaussianBlur12" />
      <feColorMatrix
         in="shadowBlurOuter1"
         values="0 0 0 0 0   0 0 0 0 0   0 0 0 0 0  0 0 0 0.1 0"
         id="feColorMatrix14" />
    </filter>
    <mask
       fill="#fff"
       id="logo-b">
      <use
         height="100%"
         width="100%"
         y="0"
         x="0"
         id="use19"
         xlink:href="#logo-a" />
    </mask>
    <linearGradient
       inkscape:collect="always"
       xlink:href="#linearGradient825"
       id="linearGradient829"
       gradientUnits="userSpaceOnUse"
       x1="99.787598"
       y1="175.19077"
       x2="156.08139"
       y2="32.767662" />
    <linearGradient
       inkscape:collect="always"
       id="linearGradient825">
      <stop
         style="stop-color:#034db3;stop-opacity:1"
         offset="0"
         id="stop821" />
      <stop
         style="stop-color:#1be0fc;stop-opacity:1"
         offset="1"
         id="stop823" />
    </linearGradient>
  </defs>
  <g
     id="g47"
     transform="translate(2.893618,-2.191054)">
    <use
       transform="translate(-18.757929,2.4340904)"
       xlink:href="#logo-e"
       id="use30"
       style="fill:#ffffff;fill-rule:evenodd"
       x="0"
       y="0"
       width="100%"
       height="100%" />
    <text
       id="text62"
       y="39.682076"
       x="231.34103"
       style="font-style:normal;font-weight:normal;font-size:27.92481041px;line-height:1.25;font-family:sans-serif;letter-spacing:0px;word-spacing:0px;fill:#000000;fill-opacity:1;stroke:none;stroke-width:0.69812042"
       xml:space="preserve"><tspan
         style="font-style:normal;font-variant:normal;font-weight:normal;font-stretch:normal;font-family:TypoGraphica;-inkscape-font-specification:TypoGraphica;fill:#0f97d8;fill-opacity:1;stroke-width:0.69812042"
         y="39.682076"
         x="231.34103"
         id="tspan60"
         sodipodi:role="line">brasil</tspan></text>
    <g
       id="g4499"
       style="opacity:1;fill:none;fill-rule:evenodd;stroke:none;stroke-width:1"
       transform="matrix(0.28640322,-0.10993989,0.10697189,0.27867131,-24.540501,12.289518)">
      <g
         id="ISO安装器-256px">
        <path
           d="M 154.41881,36.889655 C 108.83853,23.559639 77.816519,34.010298 61.467671,77.538252 c -13.330082,45.574678 -3.67052,75.602398 39.040459,92.116798 45.56953,13.33001 81.09144,3.08828 94.41615,-42.48639 13.33008,-45.585435 2.42029,-73.243996 -40.50547,-90.279005 z"
           id="path15"
           inkscape:connector-curvature="0"
           style="fill:#ffffff"
           sodipodi:nodetypes="ccccc" />
        <path
           d="m 153.9937,32.40558 c -10.92244,-3.984578 -22.11089,-5.059437 -32.96819,-4.049721 -12.58904,0.99343 -18.73427,4.89115 -18.37055,4.185435 -20.585441,7.350297 -37.989694,23.158321 -46.051239,45.32864 -14.353352,39.482056 5.976943,83.144126 45.399799,97.519006 39.43915,14.37487 83.03664,-5.9823 97.38999,-45.46436 14.35878,-39.482056 -5.97152,-83.138693 -45.39981,-97.519 z m -49.39528,135.84478 c -4.20178,-1.53629 -8.126692,-3.49058 -11.823603,-5.72173 18.370553,1.41143 42.343473,-2.82286 58.509993,-17.95231 0,0 30.81845,-24.62404 8.52298,-65.034384 0,0 3.59377,16.285739 -0.98802,29.683474 0,0 -4.37006,18.21831 -23.79377,23.51118 -28.60898,7.79544 -61.20803,-12.23059 -74.833942,-21.93146 -1.026015,-9.9723 -0.114001,-20.275749 3.53948,-30.329478 5.417793,-14.896023 15.601941,-26.518612 28.044407,-34.324909 -3.110616,21.763176 -0.651438,41.800063 2.882613,50.192647 4.744641,11.25345 12.990762,24.37975 29.075852,26.06261 16.08509,1.68829 24.9555,-13.36516 24.9555,-13.36516 8.25155,-12.540022 9.54357,-30.54662 9.41871,-30.980906 -0.12486,-0.439715 -2.1986,-1.628574 -2.1986,-1.628574 -5.55351,22.474319 -14.71164,29.98204 -14.71164,29.98204 -14.44021,13.9406 -24.66779,4.2723 -24.66779,4.2723 -10.99302,-11.807164 -3.29519,-30.997192 -3.29519,-30.997192 4.30492,-13.07202 16.85053,-32.202334 31.06816,-41.930349 2.3669,0.586287 4.75007,0.950001 7.08982,1.802289 8.60441,3.137718 16.13938,7.866011 22.51261,13.674591 -10.39586,3.794578 -27.18125,11.818018 -27.18125,11.818018 -26.60581,11.204588 -28.40269,28.152614 -28.40269,28.152614 -2.75233,17.469169 11.10701,10.075439 11.10701,10.075439 14.2665,-6.948577 21.27488,-28.603181 21.27488,-28.603181 -4.45149,-0.846859 -7.9584,0.504858 -7.9584,0.504858 -5.69465,14.054592 -17.31196,19.836029 -17.31196,19.836029 -4.57093,2.421147 -5.63494,-1.856574 -5.63494,-1.856574 -0.77087,-3.202862 3.30605,-3.751148 3.30605,-3.751148 6.3298,-2.459147 10.37957,-9.109157 11.29702,-11.828875 0.91201,-2.725147 2.61118,-2.936862 2.61118,-2.936862 8.67498,-2.768575 16.58452,-3.387433 16.58452,-3.387433 10.77045,-1.324574 27.25726,3.810862 27.25726,3.810862 3.69691,1.487431 7.24182,2.60029 10.39043,3.490577 6.04209,15.09688 6.99753,32.289187 1.00973,48.770357 -12.90933,35.53006 -52.15847,53.85694 -87.65641,40.92064 z"
           id="path11795"
           inkscape:connector-curvature="0"
           style="opacity:1;fill:url(#linearGradient829);fill-opacity:1" />
        <g
           id="Page-1"
           transform="translate(80,168)"
           style="fill:#b08043" />
      </g>
    </g>
  </g>
</svg>
