<svg xmlns="http://www.w3.org/2000/svg" xmlns:xlink="http://www.w3.org/1999/xlink" width="252" height="56" viewBox="0 0 252 56">
  <defs>
    <path id="logo-a" d="M48.96256,24.73888 C48.96256,37.9936 38.21728,48.73888 24.96256,48.73888 C11.70784,48.73888 0.96256,37.9936 0.96256,24.73888 C0.96256,11.48416 11.70784,0.73888 24.96256,0.73888 C38.21728,0.73888 48.96256,11.48416 48.96256,24.73888"/>
    <path id="logo-c" d="M4.28992,34.16032 C9.0496,35.54752 22.07584,38.54656 30.30112,32.73952 C35.63584,28.97248 34.94848,22.93984 34.94848,22.93984 C34.86016,18.35104 31.96,13.79296 31.96,13.79296 C43.23712,23.62048 36.57184,34.53856 36.57184,34.53856 C33.13984,41.2912 25.7008,45.352 19.76704,46.77472 C12.87136,45.1888 7.18048,40.4512 4.28992,34.16032 L4.28992,34.16032 Z M7.34464,10.39744 C8.7424,17.71744 11.87584,23.89216 13.96,26.13664 C16.65376,29.03776 20.62144,32.11744 25.71232,30.84448 C30.80512,29.57152 31.84096,24.00544 31.84096,24.00544 C32.96608,19.2688 31.3648,13.64416 31.2784,13.52608 C31.192,13.40704 30.42784,13.27456 30.42784,13.27456 C31.22656,20.73376 29.26432,24.03424 29.26432,24.03424 C26.40928,29.88256 22.21984,28.07392 22.21984,28.07392 C17.55808,25.69888 17.77792,19.00288 17.77792,19.00288 C17.63584,14.34784 19.48,6.65152 23.02528,2.1712 C16.71328,2.67712 11.13184,5.77408 7.34464,10.39744 L7.34464,10.39744 Z M33.71584,3.89728 C30.99424,6.10912 26.36416,10.83232 26.36416,10.83232 C19.49536,17.19616 20.82784,22.55488 20.82784,22.55488 C21.92224,28.17952 25.32832,24.3904 25.32832,24.3904 C28.90912,20.6896 28.64224,13.31872 28.64224,13.31872 C27.19264,13.55488 26.27488,14.35552 26.27488,14.35552 C26.09728,19.2688 23.19616,22.31776 23.19616,22.31776 C22.07104,23.56192 21.27232,22.37728 21.27232,22.37728 C20.68096,21.48832 21.86368,20.8672 21.86368,20.8672 C23.52064,19.41664 24.01792,16.94176 23.9968,16.01344 C23.9728,15.08224 24.46912,14.8288 24.46912,14.8288 C26.80768,13.02208 29.1472,11.95648 29.1472,11.95648 C32.28448,10.35808 37.87936,10.0912 37.87936,10.0912 C39.39712,10.14208 40.84768,10.0672 42.00832,9.96544 C39.76192,7.35616 36.92896,5.26528 33.71584,3.89728 L33.71584,3.89728 Z"/>
    <linearGradient id="logo-f" x1="50%" x2="50%" y1="0%" y2="100%">
      <stop offset="0%" stop-color="#FFF"/>
      <stop offset="100%" stop-color="#F9F9F9"/>
    </linearGradient>
    <path id="logo-e" d="M137.118086,37.8137249 C138.219791,37.8137249 138.226196,36.8120259 138.225129,36.7110963 C138.224061,36.3345095 138.218724,33.8687888 138.218724,33.4900316 C138.218724,32.4047672 137.135166,32.387403 137.135166,32.387403 C137.135166,32.387403 116.056511,32.3700387 114.699662,32.3700387 C112.548561,32.3700387 112.581655,30.2537732 112.581655,30.2537732 C112.553899,30.1159446 112.582723,28.0463454 112.581655,28.0463454 L133.941075,28.0463454 C139.870214,28.0463454 139.270254,23.7052878 139.270254,23.7052878 L139.270254,19.4032998 C139.270254,19.4032998 139.848863,11.7673795 131.814527,11.7673795 L113.820006,11.7673795 C105.642619,11.7673795 106.196675,19.3023702 106.196675,19.3023702 C106.196675,23.381879 106.19881,24.8404744 106.19881,30.2081921 C106.19881,37.8137249 113.682293,37.7789964 113.682293,37.7789964 M131.815595,22.6352171 C131.133434,22.6352171 112.581655,22.6373877 112.581655,22.6373877 C112.581655,22.6373877 112.585925,19.8265529 112.585925,19.3978735 C112.585925,18.2963301 113.616105,17.2143215 114.733824,17.2110657 C115.770409,17.2067246 129.706128,17.2110657 130.780077,17.2110657 C131.747272,17.2110657 132.870328,18.3126091 132.864991,19.3815945 C132.86072,20.2270154 132.84791,20.7446866 132.84791,21.5521233 C132.84791,21.5521233 132.84791,22.6352171 131.815595,22.6352171 Z M102.963084,2 C102.963084,2 104.041303,2 104.041303,3.08526439 L104.041303,32.4047672 C104.041303,32.4047672 104.035966,37.7985312 98.7099889,37.7985312 C94.4088542,37.7985312 94.1248875,37.7757407 83.9650716,37.785508 C73.8063232,37.7963607 72.0107142,29.0024633 72.0000388,24.8057459 C71.9904309,20.6090285 73.7593513,11.7641237 83.8060075,11.7673795 C88.4839852,11.76955 93.1384769,11.7662943 97.632837,11.7673795 C97.632837,11.7673795 97.6371072,3.20789927 97.6371072,3.11890759 C97.6371072,2 98.7067862,2 98.7067862,2 C99.163695,2.00108526 102.505108,2.00108526 102.963084,2 Z M97.6189589,31.3292702 C97.6189589,31.3292702 97.6360396,32.387403 96.551415,32.387403 C95.387792,32.387403 89.7052555,32.4004261 86.2143867,32.3895735 C82.7213829,32.3798061 78.439464,31.599501 78.4373289,24.8752028 C78.4341263,18.1498194 83.1932373,17.2186626 86.1642122,17.2186626 C89.1330519,17.2186626 97.6146888,17.2306005 97.6146888,17.2306005 C97.6146888,17.2306005 97.6189589,30.3655554 97.6189589,31.3292702 Z M216.13342,8.51158635 L211.863244,8.51158635 C211.27396,8.51158635 210.7957,8.0253879 210.7957,7.42632196 L210.7957,3.08526439 C210.7957,2.48619845 211.27396,2 211.863244,2 L216.13342,2 C216.722704,2 217.200964,2.48619845 217.200964,3.08526439 L217.200964,7.42632196 C217.200964,8.0253879 216.722704,8.51158635 216.13342,8.51158635 Z M216.13342,37.8137249 L211.863244,37.8137249 C211.27396,37.8137249 210.7957,37.3275265 210.7957,36.7284605 L210.7957,12.8526439 C210.7957,12.253578 211.27396,11.7673795 211.863244,11.7673795 L216.13342,11.7673795 C216.722704,11.7673795 217.200964,12.253578 217.200964,12.8526439 L217.200964,36.7284605 C217.200964,37.3275265 216.722704,37.8137249 216.13342,37.8137249 Z M236.416755,11.7749764 C244.258933,11.785829 247.092195,16.1106076 247.092195,22.1262281 L247.092195,36.7295458 C247.092195,37.3286117 246.615003,37.8137249 246.025719,37.8148102 L241.757678,37.8169807 C241.166258,37.818066 240.687999,37.3307823 240.689066,36.7295458 L240.720025,22.6200234 C240.720025,17.2837784 236.586495,17.2023836 236.408215,17.2023836 C233.5504,17.2023836 225.740248,17.2110657 225.740248,17.2110657 L225.771207,36.6948173 C225.771207,36.6948173 225.813909,38.0036462 224.342833,37.7909344 C223.298775,37.7941901 221.65796,37.7996165 220.613902,37.8039575 C219.64564,37.9298482 219.336052,37.2038063 219.336052,36.7110963 L219.336052,11.7717206 C219.336052,11.7717206 228.574577,11.7641237 236.416755,11.7749764 Z M177.70504,47.5659107 C177.70504,47.5659107 176.634293,47.5659107 176.634293,46.4806463 L176.634293,17.1622288 C176.634293,17.1622288 176.632158,11.7673795 181.959203,11.7673795 C186.25927,11.7673795 186.535764,11.7901701 196.695579,11.7804027 C206.854328,11.76955 208.649937,20.5634474 208.660612,24.7601648 C208.67022,28.9579675 206.9013,37.8028723 196.854643,37.7985312 C192.177733,37.7974459 187.523242,37.7996165 183.028882,37.7985312 C183.028882,37.7985312 183.024611,46.3580115 183.024611,46.4470031 C183.024611,47.5659107 181.958135,47.5659107 181.958135,47.5659107 C181.501226,47.5648255 178.163016,47.5648255 177.70504,47.5659107 Z M183.040625,18.2377258 C183.040625,18.2377258 183.024611,17.1785078 184.108169,17.1785078 C185.271791,17.1785078 190.954328,17.1654846 194.446264,17.1763372 C197.939268,17.1871899 202.221187,17.9664097 202.223322,24.6907079 C202.226525,31.4160913 197.467414,32.3472482 194.496439,32.3472482 C191.527599,32.3472482 183.045962,32.3363955 183.045962,32.3363955 C183.045962,32.3363955 183.040625,19.2003553 183.040625,18.2377258 Z M172.347037,37.8137249 L148.911244,37.7789964 C148.911244,37.7789964 141.427761,37.8137249 141.427761,30.2081921 C141.427761,24.8404744 141.425626,23.381879 141.425626,19.3023702 C141.425626,19.3023702 140.87157,11.7673795 149.048957,11.7673795 L167.043478,11.7673795 C175.077814,11.7673795 174.499205,19.4032998 174.499205,19.4032998 L174.499205,23.7052878 C174.499205,23.7052878 175.099165,28.0463454 169.170026,28.0463454 L147.810606,28.0463454 C147.811674,28.0463454 147.78285,30.1159446 147.810606,30.2537732 C147.810606,30.2537732 147.777512,32.3700387 149.928613,32.3700387 C151.285462,32.3700387 172.364117,32.387403 172.364117,32.387403 C172.364117,32.387403 173.447674,32.4047672 173.447674,33.4900316 C173.447674,33.8687888 173.453012,36.3345095 173.45408,36.7110963 C173.455147,36.8120259 173.448742,37.8137249 172.347037,37.8137249 Z M167.044546,22.6352171 C166.362385,22.6352171 147.810606,22.6373877 147.810606,22.6373877 C147.810606,22.6373877 147.814876,19.8265529 147.814876,19.3978735 C147.814876,18.2963301 148.845056,17.2143215 149.962775,17.2110657 C150.99936,17.2067246 164.935079,17.2110657 166.009028,17.2110657 C166.976223,17.2110657 168.099279,18.3126091 168.093941,19.3815945 C168.089671,20.2270154 168.076861,20.7446866 168.076861,21.5521233 C168.076861,21.5521233 168.076861,22.6352171 167.044546,22.6352171"/>
    <filter id="logo-d" width="109.1%" height="135.1%" x="-4.6%" y="-15.4%" filterUnits="objectBoundingBox">
      <feOffset dy="1" in="SourceAlpha" result="shadowOffsetOuter1"/>
      <feGaussianBlur in="shadowOffsetOuter1" result="shadowBlurOuter1" stdDeviation="2.5"/>
      <feColorMatrix in="shadowBlurOuter1" values="0 0 0 0 0   0 0 0 0 0   0 0 0 0 0  0 0 0 0.1 0"/>
    </filter>
  </defs>
  <g fill="none" fill-rule="evenodd" transform="translate(0 2)">
    <mask id="logo-b" fill="#fff">
      <use xlink:href="#logo-a"/>
    </mask>
    <path d="M48.96256,24.73888 C48.96256,37.9936 38.21728,48.73888 24.96256,48.73888 C11.70784,48.73888 0.96256,37.9936 0.96256,24.73888 C0.96256,11.48416 11.70784,0.73888 24.96256,0.73888 C38.21728,0.73888 48.96256,11.48416 48.96256,24.73888" mask="url(#logo-b)"/>
    <path stroke="#FFF" stroke-width="2" d="M48.0860807,24.7264414 C48.0860807,37.5041442 37.7277832,47.8624417 24.9500804,47.8624417 C12.1723776,47.8624417 1.81408,37.5041442 1.81408,24.7264414 C1.81408,11.9487386 12.1723776,1.58944 24.9500804,1.58944 C37.7277832,1.58944 48.0860807,11.9487386 48.0860807,24.7264414"/>
    <use fill="#FFF" xlink:href="#logo-c"/>
    <use fill="#000" filter="url(#logo-d)" xlink:href="#logo-e"/>
    <use fill="url(#logo-f)" xlink:href="#logo-e"/>
  </g>
</svg>
